<mxfile host="Electron" modified="2024-03-21T17:29:37.025Z" agent="Mozilla/5.0 (Macintosh; Intel Mac OS X 10_15_7) AppleWebKit/537.36 (KHTML, like Gecko) draw.io/24.0.4 Chrome/120.0.6099.109 Electron/28.1.0 Safari/537.36" etag="0__DOexWGPZy5SaX-LuG" version="24.0.4" type="device">
  <diagram name="Page-1" id="EnJa8nesmO4lkYarM3P3">
    <mxGraphModel dx="1102" dy="1362" grid="1" gridSize="10" guides="1" tooltips="1" connect="1" arrows="1" fold="1" page="1" pageScale="1" pageWidth="827" pageHeight="1169" math="0" shadow="0">
      <root>
        <mxCell id="0" />
        <mxCell id="1" parent="0" />
        <mxCell id="nzZ0iq8yQrdat6Cmktu3-3" value="" style="edgeStyle=orthogonalEdgeStyle;rounded=0;orthogonalLoop=1;jettySize=auto;html=1;fillColor=#dae8fc;strokeColor=#6c8ebf;" edge="1" parent="1" source="nzZ0iq8yQrdat6Cmktu3-1" target="nzZ0iq8yQrdat6Cmktu3-2">
          <mxGeometry relative="1" as="geometry" />
        </mxCell>
        <mxCell id="nzZ0iq8yQrdat6Cmktu3-1" value="Start" style="rounded=1;whiteSpace=wrap;html=1;fillColor=#d5e8d4;strokeColor=#82b366;fontColor=#000000;" vertex="1" parent="1">
          <mxGeometry x="330" y="10" width="150" height="50" as="geometry" />
        </mxCell>
        <mxCell id="nzZ0iq8yQrdat6Cmktu3-5" value="" style="edgeStyle=orthogonalEdgeStyle;rounded=0;orthogonalLoop=1;jettySize=auto;html=1;" edge="1" parent="1" source="nzZ0iq8yQrdat6Cmktu3-2" target="nzZ0iq8yQrdat6Cmktu3-4">
          <mxGeometry relative="1" as="geometry" />
        </mxCell>
        <mxCell id="nzZ0iq8yQrdat6Cmktu3-2" value="Show menu:&lt;br&gt;1-Start-game&lt;br&gt;2-How to play&lt;br&gt;3-Quit" style="whiteSpace=wrap;html=1;rounded=1;fillColor=#dae8fc;strokeColor=#6c8ebf;fontColor=#000000;" vertex="1" parent="1">
          <mxGeometry x="345" y="100" width="120" height="60" as="geometry" />
        </mxCell>
        <mxCell id="nzZ0iq8yQrdat6Cmktu3-6" style="edgeStyle=orthogonalEdgeStyle;rounded=0;orthogonalLoop=1;jettySize=auto;html=1;exitX=0;exitY=0.5;exitDx=0;exitDy=0;entryX=0;entryY=0.5;entryDx=0;entryDy=0;fillColor=#f8cecc;strokeColor=#b85450;" edge="1" parent="1" source="nzZ0iq8yQrdat6Cmktu3-4" target="nzZ0iq8yQrdat6Cmktu3-2">
          <mxGeometry relative="1" as="geometry">
            <mxPoint x="359.99882352941194" y="200.05882352941217" as="sourcePoint" />
            <mxPoint x="330" y="130" as="targetPoint" />
            <Array as="points">
              <mxPoint x="280" y="220" />
              <mxPoint x="280" y="130" />
            </Array>
          </mxGeometry>
        </mxCell>
        <mxCell id="nzZ0iq8yQrdat6Cmktu3-13" style="edgeStyle=orthogonalEdgeStyle;rounded=0;orthogonalLoop=1;jettySize=auto;html=1;entryX=0.5;entryY=0;entryDx=0;entryDy=0;fillColor=#dae8fc;strokeColor=#6c8ebf;" edge="1" parent="1" source="nzZ0iq8yQrdat6Cmktu3-4" target="nzZ0iq8yQrdat6Cmktu3-10">
          <mxGeometry relative="1" as="geometry" />
        </mxCell>
        <mxCell id="nzZ0iq8yQrdat6Cmktu3-14" style="edgeStyle=orthogonalEdgeStyle;rounded=0;orthogonalLoop=1;jettySize=auto;html=1;entryX=0.5;entryY=0;entryDx=0;entryDy=0;fillColor=#dae8fc;strokeColor=#6c8ebf;" edge="1" parent="1" target="nzZ0iq8yQrdat6Cmktu3-11">
          <mxGeometry relative="1" as="geometry">
            <mxPoint x="405" y="280" as="sourcePoint" />
          </mxGeometry>
        </mxCell>
        <mxCell id="nzZ0iq8yQrdat6Cmktu3-15" style="edgeStyle=orthogonalEdgeStyle;rounded=0;orthogonalLoop=1;jettySize=auto;html=1;exitX=0.5;exitY=1;exitDx=0;exitDy=0;entryX=0.5;entryY=0;entryDx=0;entryDy=0;fillColor=#dae8fc;strokeColor=#6c8ebf;" edge="1" parent="1" source="nzZ0iq8yQrdat6Cmktu3-4" target="nzZ0iq8yQrdat6Cmktu3-8">
          <mxGeometry relative="1" as="geometry">
            <Array as="points">
              <mxPoint x="240" y="280" />
            </Array>
          </mxGeometry>
        </mxCell>
        <mxCell id="nzZ0iq8yQrdat6Cmktu3-75" style="edgeStyle=orthogonalEdgeStyle;rounded=0;orthogonalLoop=1;jettySize=auto;html=1;entryX=0.5;entryY=0;entryDx=0;entryDy=0;fillColor=#dae8fc;strokeColor=#6c8ebf;" edge="1" parent="1" source="nzZ0iq8yQrdat6Cmktu3-4" target="nzZ0iq8yQrdat6Cmktu3-72">
          <mxGeometry relative="1" as="geometry">
            <Array as="points">
              <mxPoint x="405" y="280" />
              <mxPoint x="740" y="280" />
            </Array>
          </mxGeometry>
        </mxCell>
        <mxCell id="nzZ0iq8yQrdat6Cmktu3-4" value="Valid input?" style="rhombus;whiteSpace=wrap;html=1;rounded=1;fillColor=#fff2cc;strokeColor=#d6b656;fontColor=#000000;" vertex="1" parent="1">
          <mxGeometry x="365" y="180" width="80" height="80" as="geometry" />
        </mxCell>
        <mxCell id="nzZ0iq8yQrdat6Cmktu3-7" value="No" style="text;html=1;align=center;verticalAlign=middle;resizable=0;points=[];autosize=1;strokeColor=#b85450;fillColor=#f8cecc;fontColor=#000000;" vertex="1" parent="1">
          <mxGeometry x="240" y="160" width="40" height="30" as="geometry" />
        </mxCell>
        <mxCell id="nzZ0iq8yQrdat6Cmktu3-21" value="" style="edgeStyle=orthogonalEdgeStyle;rounded=0;orthogonalLoop=1;jettySize=auto;html=1;fillColor=#dae8fc;strokeColor=#6c8ebf;" edge="1" parent="1" source="nzZ0iq8yQrdat6Cmktu3-8" target="nzZ0iq8yQrdat6Cmktu3-20">
          <mxGeometry relative="1" as="geometry" />
        </mxCell>
        <mxCell id="nzZ0iq8yQrdat6Cmktu3-8" value="1 -Start Game" style="whiteSpace=wrap;html=1;rounded=1;fillColor=#dae8fc;strokeColor=#6c8ebf;fontColor=#000000;" vertex="1" parent="1">
          <mxGeometry x="180" y="320" width="120" height="60" as="geometry" />
        </mxCell>
        <mxCell id="nzZ0iq8yQrdat6Cmktu3-17" value="" style="edgeStyle=orthogonalEdgeStyle;rounded=0;orthogonalLoop=1;jettySize=auto;html=1;fillColor=#dae8fc;strokeColor=#6c8ebf;" edge="1" parent="1" source="nzZ0iq8yQrdat6Cmktu3-10" target="nzZ0iq8yQrdat6Cmktu3-16">
          <mxGeometry relative="1" as="geometry" />
        </mxCell>
        <mxCell id="nzZ0iq8yQrdat6Cmktu3-10" value="2-How to play?" style="whiteSpace=wrap;html=1;rounded=1;fillColor=#dae8fc;strokeColor=#6c8ebf;fontColor=#000000;" vertex="1" parent="1">
          <mxGeometry x="345" y="320" width="120" height="60" as="geometry" />
        </mxCell>
        <mxCell id="nzZ0iq8yQrdat6Cmktu3-77" value="" style="edgeStyle=orthogonalEdgeStyle;rounded=0;orthogonalLoop=1;jettySize=auto;html=1;fillColor=#dae8fc;strokeColor=#6c8ebf;" edge="1" parent="1" source="nzZ0iq8yQrdat6Cmktu3-11" target="nzZ0iq8yQrdat6Cmktu3-76">
          <mxGeometry relative="1" as="geometry" />
        </mxCell>
        <mxCell id="nzZ0iq8yQrdat6Cmktu3-11" value="3-Show Scores" style="whiteSpace=wrap;html=1;rounded=1;fillColor=#dae8fc;strokeColor=#6c8ebf;" vertex="1" parent="1">
          <mxGeometry x="510" y="320" width="120" height="60" as="geometry" />
        </mxCell>
        <mxCell id="nzZ0iq8yQrdat6Cmktu3-19" style="edgeStyle=orthogonalEdgeStyle;rounded=0;orthogonalLoop=1;jettySize=auto;html=1;entryX=1;entryY=0.5;entryDx=0;entryDy=0;fillColor=#dae8fc;strokeColor=#6c8ebf;" edge="1" parent="1" source="nzZ0iq8yQrdat6Cmktu3-16" target="nzZ0iq8yQrdat6Cmktu3-2">
          <mxGeometry relative="1" as="geometry">
            <mxPoint x="740" y="120" as="targetPoint" />
            <Array as="points">
              <mxPoint x="650" y="490" />
              <mxPoint x="650" y="129" />
              <mxPoint x="465" y="129" />
            </Array>
          </mxGeometry>
        </mxCell>
        <mxCell id="nzZ0iq8yQrdat6Cmktu3-16" value="Show Instructions&lt;br&gt;1-&amp;nbsp;&lt;br&gt;2-&lt;br&gt;..." style="whiteSpace=wrap;html=1;rounded=1;fillColor=#dae8fc;strokeColor=#6c8ebf;fontColor=#000000;" vertex="1" parent="1">
          <mxGeometry x="345" y="460" width="120" height="60" as="geometry" />
        </mxCell>
        <mxCell id="nzZ0iq8yQrdat6Cmktu3-23" value="" style="edgeStyle=orthogonalEdgeStyle;rounded=0;orthogonalLoop=1;jettySize=auto;html=1;fillColor=#dae8fc;strokeColor=#6c8ebf;" edge="1" parent="1" source="nzZ0iq8yQrdat6Cmktu3-20" target="nzZ0iq8yQrdat6Cmktu3-22">
          <mxGeometry relative="1" as="geometry" />
        </mxCell>
        <mxCell id="nzZ0iq8yQrdat6Cmktu3-20" value="Enter your name" style="whiteSpace=wrap;html=1;rounded=1;fillColor=#dae8fc;strokeColor=#6c8ebf;fontColor=#000000;" vertex="1" parent="1">
          <mxGeometry x="180" y="460" width="120" height="60" as="geometry" />
        </mxCell>
        <mxCell id="nzZ0iq8yQrdat6Cmktu3-26" value="" style="edgeStyle=orthogonalEdgeStyle;rounded=0;orthogonalLoop=1;jettySize=auto;html=1;fillColor=#dae8fc;strokeColor=#6c8ebf;" edge="1" parent="1" source="nzZ0iq8yQrdat6Cmktu3-22" target="nzZ0iq8yQrdat6Cmktu3-25">
          <mxGeometry relative="1" as="geometry" />
        </mxCell>
        <mxCell id="nzZ0iq8yQrdat6Cmktu3-22" value="is Name&lt;br&gt;valid?" style="rhombus;whiteSpace=wrap;html=1;rounded=1;fillColor=#fff2cc;strokeColor=#d6b656;fontColor=#000000;" vertex="1" parent="1">
          <mxGeometry x="200" y="560" width="80" height="80" as="geometry" />
        </mxCell>
        <mxCell id="nzZ0iq8yQrdat6Cmktu3-28" value="" style="edgeStyle=orthogonalEdgeStyle;rounded=0;orthogonalLoop=1;jettySize=auto;html=1;fillColor=#dae8fc;strokeColor=#6c8ebf;" edge="1" parent="1" source="nzZ0iq8yQrdat6Cmktu3-25" target="nzZ0iq8yQrdat6Cmktu3-27">
          <mxGeometry relative="1" as="geometry" />
        </mxCell>
        <mxCell id="nzZ0iq8yQrdat6Cmktu3-25" value="Enter your Country" style="whiteSpace=wrap;html=1;rounded=1;fillColor=#dae8fc;strokeColor=#6c8ebf;fontColor=#000000;" vertex="1" parent="1">
          <mxGeometry x="180" y="650" width="120" height="60" as="geometry" />
        </mxCell>
        <mxCell id="nzZ0iq8yQrdat6Cmktu3-31" value="" style="edgeStyle=orthogonalEdgeStyle;rounded=0;orthogonalLoop=1;jettySize=auto;html=1;fillColor=#dae8fc;strokeColor=#6c8ebf;" edge="1" parent="1" source="nzZ0iq8yQrdat6Cmktu3-27" target="nzZ0iq8yQrdat6Cmktu3-30">
          <mxGeometry relative="1" as="geometry" />
        </mxCell>
        <mxCell id="nzZ0iq8yQrdat6Cmktu3-27" value="Is Country&lt;br&gt;Valid?" style="rhombus;whiteSpace=wrap;html=1;rounded=1;fillColor=#fff2cc;strokeColor=#d6b656;fontColor=#000000;" vertex="1" parent="1">
          <mxGeometry x="200" y="740" width="80" height="80" as="geometry" />
        </mxCell>
        <mxCell id="nzZ0iq8yQrdat6Cmktu3-33" value="" style="edgeStyle=orthogonalEdgeStyle;rounded=0;orthogonalLoop=1;jettySize=auto;html=1;exitX=1;exitY=0.5;exitDx=0;exitDy=0;fillColor=#dae8fc;strokeColor=#6c8ebf;" edge="1" parent="1" source="nzZ0iq8yQrdat6Cmktu3-30">
          <mxGeometry relative="1" as="geometry">
            <mxPoint x="260" y="880" as="sourcePoint" />
            <mxPoint x="374" y="658.8299999999999" as="targetPoint" />
          </mxGeometry>
        </mxCell>
        <mxCell id="nzZ0iq8yQrdat6Cmktu3-30" value="Insert Name and country in Database" style="whiteSpace=wrap;html=1;rounded=1;fillColor=#dae8fc;strokeColor=#6c8ebf;fontColor=#000000;" vertex="1" parent="1">
          <mxGeometry x="180" y="850" width="120" height="60" as="geometry" />
        </mxCell>
        <mxCell id="nzZ0iq8yQrdat6Cmktu3-42" value="" style="edgeStyle=orthogonalEdgeStyle;rounded=0;orthogonalLoop=1;jettySize=auto;html=1;fillColor=#dae8fc;strokeColor=#6c8ebf;" edge="1" parent="1" source="nzZ0iq8yQrdat6Cmktu3-32" target="nzZ0iq8yQrdat6Cmktu3-41">
          <mxGeometry relative="1" as="geometry" />
        </mxCell>
        <mxCell id="nzZ0iq8yQrdat6Cmktu3-32" value="Show question&lt;br&gt;with Choices" style="whiteSpace=wrap;html=1;rounded=1;fillColor=#dae8fc;strokeColor=#6c8ebf;fontColor=#000000;" vertex="1" parent="1">
          <mxGeometry x="354" y="598.8299999999999" width="120" height="60" as="geometry" />
        </mxCell>
        <mxCell id="nzZ0iq8yQrdat6Cmktu3-34" value="" style="endArrow=classic;html=1;rounded=0;entryX=0;entryY=0.5;entryDx=0;entryDy=0;exitX=0;exitY=0.5;exitDx=0;exitDy=0;fillColor=#f8cecc;strokeColor=#b85450;" edge="1" parent="1" source="nzZ0iq8yQrdat6Cmktu3-22" target="nzZ0iq8yQrdat6Cmktu3-20">
          <mxGeometry width="50" height="50" relative="1" as="geometry">
            <mxPoint x="340" y="610" as="sourcePoint" />
            <mxPoint x="390" y="560" as="targetPoint" />
            <Array as="points">
              <mxPoint x="80" y="600" />
              <mxPoint x="80" y="490" />
            </Array>
          </mxGeometry>
        </mxCell>
        <mxCell id="nzZ0iq8yQrdat6Cmktu3-35" value="" style="endArrow=classic;html=1;rounded=0;fillColor=#f8cecc;strokeColor=#b85450;" edge="1" parent="1">
          <mxGeometry width="50" height="50" relative="1" as="geometry">
            <mxPoint x="200" y="780" as="sourcePoint" />
            <mxPoint x="180" y="680" as="targetPoint" />
            <Array as="points">
              <mxPoint x="80" y="780" />
              <mxPoint x="80" y="730" />
              <mxPoint x="80" y="680" />
            </Array>
          </mxGeometry>
        </mxCell>
        <mxCell id="nzZ0iq8yQrdat6Cmktu3-36" value="No" style="text;html=1;align=center;verticalAlign=middle;resizable=0;points=[];autosize=1;strokeColor=#b85450;fillColor=#f8cecc;fontColor=#000000;" vertex="1" parent="1">
          <mxGeometry x="40" y="520" width="40" height="30" as="geometry" />
        </mxCell>
        <mxCell id="nzZ0iq8yQrdat6Cmktu3-37" value="No" style="text;html=1;align=center;verticalAlign=middle;resizable=0;points=[];autosize=1;strokeColor=#b85450;fillColor=#f8cecc;fontColor=#000000;" vertex="1" parent="1">
          <mxGeometry x="40" y="708" width="40" height="30" as="geometry" />
        </mxCell>
        <mxCell id="nzZ0iq8yQrdat6Cmktu3-38" value="Yes" style="text;html=1;align=center;verticalAlign=middle;resizable=0;points=[];autosize=1;strokeColor=#82b366;fillColor=#d5e8d4;fontColor=#000000;" vertex="1" parent="1">
          <mxGeometry x="250" y="520" width="40" height="30" as="geometry" />
        </mxCell>
        <mxCell id="nzZ0iq8yQrdat6Cmktu3-39" value="Yes" style="text;html=1;align=center;verticalAlign=middle;resizable=0;points=[];autosize=1;strokeColor=#82b366;fillColor=#d5e8d4;fontColor=#000000;" vertex="1" parent="1">
          <mxGeometry x="250" y="710" width="40" height="30" as="geometry" />
        </mxCell>
        <mxCell id="nzZ0iq8yQrdat6Cmktu3-40" value="Yes" style="text;html=1;align=center;verticalAlign=middle;resizable=0;points=[];autosize=1;strokeColor=#82b366;fillColor=#d5e8d4;fontColor=#000000;" vertex="1" parent="1">
          <mxGeometry x="250" y="812.35" width="40" height="30" as="geometry" />
        </mxCell>
        <mxCell id="nzZ0iq8yQrdat6Cmktu3-47" value="" style="edgeStyle=orthogonalEdgeStyle;rounded=0;orthogonalLoop=1;jettySize=auto;html=1;fillColor=#dae8fc;strokeColor=#6c8ebf;" edge="1" parent="1" source="nzZ0iq8yQrdat6Cmktu3-41" target="nzZ0iq8yQrdat6Cmktu3-46">
          <mxGeometry relative="1" as="geometry" />
        </mxCell>
        <mxCell id="nzZ0iq8yQrdat6Cmktu3-41" value="Is Answer right" style="rhombus;whiteSpace=wrap;html=1;rounded=1;fillColor=#fff2cc;strokeColor=#d6b656;fontColor=#000000;" vertex="1" parent="1">
          <mxGeometry x="510" y="567.65" width="130" height="122.35" as="geometry" />
        </mxCell>
        <mxCell id="nzZ0iq8yQrdat6Cmktu3-45" style="edgeStyle=orthogonalEdgeStyle;rounded=0;orthogonalLoop=1;jettySize=auto;html=1;entryX=0.5;entryY=1;entryDx=0;entryDy=0;fillColor=#dae8fc;strokeColor=#6c8ebf;" edge="1" parent="1" source="nzZ0iq8yQrdat6Cmktu3-43" target="nzZ0iq8yQrdat6Cmktu3-32">
          <mxGeometry relative="1" as="geometry" />
        </mxCell>
        <mxCell id="nzZ0iq8yQrdat6Cmktu3-43" value="Update Score in Database" style="whiteSpace=wrap;html=1;rounded=1;fillColor=#dae8fc;strokeColor=#6c8ebf;fontColor=#000000;" vertex="1" parent="1">
          <mxGeometry x="354" y="909.9949999999999" width="120" height="60" as="geometry" />
        </mxCell>
        <mxCell id="nzZ0iq8yQrdat6Cmktu3-50" value="" style="edgeStyle=orthogonalEdgeStyle;rounded=0;orthogonalLoop=1;jettySize=auto;html=1;fillColor=#dae8fc;strokeColor=#6c8ebf;" edge="1" parent="1" source="nzZ0iq8yQrdat6Cmktu3-46" target="nzZ0iq8yQrdat6Cmktu3-49">
          <mxGeometry relative="1" as="geometry" />
        </mxCell>
        <mxCell id="nzZ0iq8yQrdat6Cmktu3-46" value="questions == 15" style="rhombus;whiteSpace=wrap;html=1;rounded=1;fillColor=#fff2cc;strokeColor=#d6b656;fontColor=#000000;" vertex="1" parent="1">
          <mxGeometry x="510" y="720" width="130" height="122.35" as="geometry" />
        </mxCell>
        <mxCell id="nzZ0iq8yQrdat6Cmktu3-48" style="edgeStyle=orthogonalEdgeStyle;rounded=0;orthogonalLoop=1;jettySize=auto;html=1;entryX=0.7;entryY=-0.05;entryDx=0;entryDy=0;entryPerimeter=0;fillColor=#f8cecc;strokeColor=#b85450;" edge="1" parent="1" source="nzZ0iq8yQrdat6Cmktu3-46" target="nzZ0iq8yQrdat6Cmktu3-43">
          <mxGeometry relative="1" as="geometry" />
        </mxCell>
        <mxCell id="nzZ0iq8yQrdat6Cmktu3-52" value="" style="edgeStyle=orthogonalEdgeStyle;rounded=0;orthogonalLoop=1;jettySize=auto;html=1;fillColor=#dae8fc;strokeColor=#6c8ebf;" edge="1" parent="1" source="nzZ0iq8yQrdat6Cmktu3-49" target="nzZ0iq8yQrdat6Cmktu3-51">
          <mxGeometry relative="1" as="geometry" />
        </mxCell>
        <mxCell id="nzZ0iq8yQrdat6Cmktu3-49" value="Congratulate the Player" style="whiteSpace=wrap;html=1;rounded=1;fillColor=#dae8fc;strokeColor=#6c8ebf;fontColor=#000000;" vertex="1" parent="1">
          <mxGeometry x="515" y="859.995" width="120" height="60" as="geometry" />
        </mxCell>
        <mxCell id="nzZ0iq8yQrdat6Cmktu3-54" value="" style="edgeStyle=orthogonalEdgeStyle;rounded=0;orthogonalLoop=1;jettySize=auto;html=1;fillColor=#dae8fc;strokeColor=#6c8ebf;" edge="1" parent="1" source="nzZ0iq8yQrdat6Cmktu3-51" target="nzZ0iq8yQrdat6Cmktu3-53">
          <mxGeometry relative="1" as="geometry" />
        </mxCell>
        <mxCell id="nzZ0iq8yQrdat6Cmktu3-51" value="Update Score in Datebase" style="whiteSpace=wrap;html=1;rounded=1;fillColor=#dae8fc;strokeColor=#6c8ebf;fontColor=#000000;" vertex="1" parent="1">
          <mxGeometry x="515" y="940.0049999999999" width="120" height="60" as="geometry" />
        </mxCell>
        <mxCell id="nzZ0iq8yQrdat6Cmktu3-68" style="edgeStyle=orthogonalEdgeStyle;rounded=0;orthogonalLoop=1;jettySize=auto;html=1;entryX=1;entryY=0.25;entryDx=0;entryDy=0;fillColor=#f8cecc;strokeColor=#b85450;" edge="1" parent="1" source="nzZ0iq8yQrdat6Cmktu3-53" target="nzZ0iq8yQrdat6Cmktu3-56">
          <mxGeometry relative="1" as="geometry">
            <Array as="points">
              <mxPoint x="575" y="1105" />
            </Array>
          </mxGeometry>
        </mxCell>
        <mxCell id="nzZ0iq8yQrdat6Cmktu3-53" value="Play again?" style="rhombus;whiteSpace=wrap;html=1;rounded=1;fillColor=#fff2cc;strokeColor=#d6b656;" vertex="1" parent="1">
          <mxGeometry x="535" y="1020.0049999999999" width="80" height="80" as="geometry" />
        </mxCell>
        <mxCell id="nzZ0iq8yQrdat6Cmktu3-55" value="" style="endArrow=classic;html=1;rounded=0;exitX=0;exitY=0.5;exitDx=0;exitDy=0;fillColor=#dae8fc;strokeColor=#6c8ebf;" edge="1" parent="1" source="nzZ0iq8yQrdat6Cmktu3-53">
          <mxGeometry width="50" height="50" relative="1" as="geometry">
            <mxPoint x="515" y="1120.015" as="sourcePoint" />
            <mxPoint x="400" y="660" as="targetPoint" />
            <Array as="points">
              <mxPoint x="320" y="1060" />
              <mxPoint x="320" y="900" />
              <mxPoint x="400" y="900" />
            </Array>
          </mxGeometry>
        </mxCell>
        <mxCell id="nzZ0iq8yQrdat6Cmktu3-56" value="End Game" style="whiteSpace=wrap;html=1;rounded=1;fillColor=#f8cecc;strokeColor=#b85450;fontColor=#000000;" vertex="1" parent="1">
          <mxGeometry x="354" y="1090.0049999999999" width="120" height="60" as="geometry" />
        </mxCell>
        <mxCell id="nzZ0iq8yQrdat6Cmktu3-60" value="No" style="text;html=1;align=center;verticalAlign=middle;resizable=0;points=[];autosize=1;strokeColor=#b85450;fillColor=#f8cecc;fontColor=#000000;" vertex="1" parent="1">
          <mxGeometry x="470" y="750" width="40" height="30" as="geometry" />
        </mxCell>
        <mxCell id="nzZ0iq8yQrdat6Cmktu3-61" value="Yes" style="text;html=1;align=center;verticalAlign=middle;resizable=0;points=[];autosize=1;strokeColor=#82b366;fillColor=#d5e8d4;fontColor=#000000;" vertex="1" parent="1">
          <mxGeometry x="590" y="680" width="40" height="30" as="geometry" />
        </mxCell>
        <mxCell id="nzZ0iq8yQrdat6Cmktu3-64" value="" style="endArrow=classic;html=1;rounded=0;entryX=1;entryY=0.5;entryDx=0;entryDy=0;fillColor=#dae8fc;strokeColor=#6c8ebf;" edge="1" parent="1" target="nzZ0iq8yQrdat6Cmktu3-56">
          <mxGeometry width="50" height="50" relative="1" as="geometry">
            <mxPoint x="640" y="630" as="sourcePoint" />
            <mxPoint x="760" y="1120" as="targetPoint" />
            <Array as="points">
              <mxPoint x="760" y="630" />
              <mxPoint x="760" y="1120" />
            </Array>
          </mxGeometry>
        </mxCell>
        <mxCell id="nzZ0iq8yQrdat6Cmktu3-65" value="Yes" style="text;html=1;align=center;verticalAlign=middle;resizable=0;points=[];autosize=1;strokeColor=#82b366;fillColor=#d5e8d4;fontColor=#000000;" vertex="1" parent="1">
          <mxGeometry x="414" y="160" width="40" height="30" as="geometry" />
        </mxCell>
        <mxCell id="nzZ0iq8yQrdat6Cmktu3-66" value="Yes" style="text;html=1;align=center;verticalAlign=middle;resizable=0;points=[];autosize=1;strokeColor=#82b366;fillColor=#d5e8d4;fontColor=#000000;" vertex="1" parent="1">
          <mxGeometry x="590" y="829.99" width="40" height="30" as="geometry" />
        </mxCell>
        <mxCell id="nzZ0iq8yQrdat6Cmktu3-67" value="Yes" style="text;html=1;align=center;verticalAlign=middle;resizable=0;points=[];autosize=1;strokeColor=#82b366;fillColor=#d5e8d4;fontColor=#000000;" vertex="1" parent="1">
          <mxGeometry x="495" y="1028" width="40" height="30" as="geometry" />
        </mxCell>
        <mxCell id="nzZ0iq8yQrdat6Cmktu3-69" value="No" style="text;html=1;align=center;verticalAlign=middle;resizable=0;points=[];autosize=1;strokeColor=#b85450;fillColor=#f8cecc;fontColor=#000000;" vertex="1" parent="1">
          <mxGeometry x="580" y="1090" width="40" height="30" as="geometry" />
        </mxCell>
        <mxCell id="nzZ0iq8yQrdat6Cmktu3-70" value="&lt;h1 style=&quot;margin-top: 0px;&quot;&gt;&lt;span style=&quot;background-color: initial;&quot;&gt;&lt;font style=&quot;font-size: 19px;&quot;&gt;Who Wants to be a Millionaire&lt;/font&gt;&lt;br&gt;&lt;/span&gt;&lt;span style=&quot;background-color: initial; font-size: 12px; font-weight: normal;&quot;&gt;Workflow of the application in the background&amp;nbsp;&lt;/span&gt;&lt;br&gt;&lt;/h1&gt;" style="text;html=1;whiteSpace=wrap;overflow=hidden;rounded=0;" vertex="1" parent="1">
          <mxGeometry x="20" y="10" width="290" height="120" as="geometry" />
        </mxCell>
        <mxCell id="nzZ0iq8yQrdat6Cmktu3-74" style="edgeStyle=orthogonalEdgeStyle;rounded=0;orthogonalLoop=1;jettySize=auto;html=1;entryX=1;entryY=1;entryDx=0;entryDy=0;fillColor=#dae8fc;strokeColor=#6c8ebf;" edge="1" parent="1" source="nzZ0iq8yQrdat6Cmktu3-72" target="nzZ0iq8yQrdat6Cmktu3-56">
          <mxGeometry relative="1" as="geometry">
            <Array as="points">
              <mxPoint x="810" y="350" />
              <mxPoint x="810" y="1150" />
            </Array>
          </mxGeometry>
        </mxCell>
        <mxCell id="nzZ0iq8yQrdat6Cmktu3-72" value="4-Quit" style="whiteSpace=wrap;html=1;rounded=1;fillColor=#f8cecc;strokeColor=#b85450;" vertex="1" parent="1">
          <mxGeometry x="680" y="320" width="120" height="60" as="geometry" />
        </mxCell>
        <mxCell id="nzZ0iq8yQrdat6Cmktu3-79" style="edgeStyle=orthogonalEdgeStyle;rounded=0;orthogonalLoop=1;jettySize=auto;html=1;entryX=1;entryY=0.75;entryDx=0;entryDy=0;" edge="1" parent="1" source="nzZ0iq8yQrdat6Cmktu3-76" target="nzZ0iq8yQrdat6Cmktu3-56">
          <mxGeometry relative="1" as="geometry">
            <Array as="points">
              <mxPoint x="790" y="550" />
              <mxPoint x="790" y="1135" />
            </Array>
          </mxGeometry>
        </mxCell>
        <mxCell id="nzZ0iq8yQrdat6Cmktu3-76" value="Show Sorted&lt;br&gt;Score" style="whiteSpace=wrap;html=1;fillColor=#dae8fc;strokeColor=#6c8ebf;rounded=1;" vertex="1" parent="1">
          <mxGeometry x="630" y="520" width="120" height="60" as="geometry" />
        </mxCell>
      </root>
    </mxGraphModel>
  </diagram>
</mxfile>
